<svg width="48" height="48" viewBox="0 0 48 48" fill="none" xmlns="http://www.w3.org/2000/svg">
<path d="M43 24C43 34.4934 34.4934 43 24 43M43 24C43 13.5066 34.4934 5 24 5M43 24H5M24 43C13.5066 43 5 34.4934 5 24M24 43V5M24 43H39C40.0609 43 41.1499 42.6501 41.9 41.9C42.6501 41.1499 43 40.0609 43 39V5H9C8.47471 5 7.98458 5.13326 7.49927 5.33428C7.01397 5.5353 6.57301 5.82993 6.20158 6.20137C5.83015 6.5728 5.53551 7.01376 5.33449 7.49906C5.13347 7.98436 5 8.47471 5 9V24M24 43H9C7.93913 43 6.75015 42.6501 6 41.9C5.24985 41.1499 5 40.0609 5 39V24M5 24C5 13.5066 13.5066 5 24 5M37.3575 10.6424L10.565 37.4349M10.6426 10.6424L37.4351 37.4349" stroke="#0D0D0D" stroke-linecap="round"/>
</svg>
