<svg width="20" height="20" viewBox="0 0 20 20" fill="none" xmlns="http://www.w3.org/2000/svg">
<path d="M17.9167 10.0002C17.9167 14.3724 14.3723 17.9168 10 17.9168M17.9167 10.0002C17.9167 5.62791 14.3723 2.0835 10 2.0835M17.9167 10.0002H2.08334M10 17.9168C5.62776 17.9168 2.08334 14.3724 2.08334 10.0002M10 17.9168V2.0835M10 17.9168H16.25C16.692 17.9168 17.1458 17.7711 17.4583 17.4585C17.7709 17.1459 17.9167 16.6922 17.9167 16.2502V2.0835H3.75001C3.53114 2.0835 3.32692 2.13902 3.12471 2.22278C2.9225 2.30654 2.73877 2.4293 2.584 2.58407C2.42924 2.73883 2.30647 2.92256 2.22271 3.12477C2.13896 3.32698 2.08334 3.53129 2.08334 3.75016V10.0002M10 17.9168H3.75001C3.30798 17.9168 2.81257 17.7711 2.50001 17.4585C2.18745 17.1459 2.08334 16.6922 2.08334 16.2502V10.0002M2.08334 10.0002C2.08334 5.62791 5.62776 2.0835 10 2.0835M15.5656 4.43449L4.40208 15.598M4.43442 4.43449L15.598 15.598" stroke="#0D0D0D" stroke-linecap="round"/>
</svg>
