<svg width="24" height="24" viewBox="0 0 24 24" fill="none" xmlns="http://www.w3.org/2000/svg">
<path fill-rule="evenodd" clip-rule="evenodd" d="M18.3537 5.64645C18.5489 5.84171 18.5489 6.15829 18.3537 6.35355L6.35368 18.3536C6.15841 18.5488 5.84183 18.5488 5.64657 18.3536C5.45131 18.1583 5.45131 17.8417 5.64657 17.6464L17.6466 5.64645C17.8418 5.45118 18.1584 5.45118 18.3537 5.64645Z" fill="white"/>
<path fill-rule="evenodd" clip-rule="evenodd" d="M5.64657 5.64645C5.84183 5.45118 6.15841 5.45118 6.35368 5.64645L18.3537 17.6464C18.5489 17.8417 18.5489 18.1583 18.3537 18.3536C18.1584 18.5488 17.8418 18.5488 17.6466 18.3536L5.64657 6.35355C5.45131 6.15829 5.45131 5.84171 5.64657 5.64645Z" fill="white"/>
</svg>
