<svg width="40" height="52" viewBox="0 0 40 52" fill="none" xmlns="http://www.w3.org/2000/svg">
<path d="M34.9219 7.25C35.9369 7.25248 36.9097 7.65703 37.6271 8.37508C38.3446 9.09313 38.7483 10.0662 38.75 11.0813V40.9188C38.7483 41.9338 38.3446 42.9069 37.6271 43.6249C36.9097 44.343 35.9369 44.7475 34.9219 44.75H5.0875C4.58396 44.7504 4.08528 44.6516 3.61991 44.4593C3.15455 44.267 2.73162 43.9849 2.37527 43.6292C2.01893 43.2734 1.73614 42.8509 1.54307 42.3859C1.35 41.9208 1.25041 41.4223 1.25 40.9188V11.0813C1.25041 10.5777 1.35 10.0792 1.54307 9.61414C1.73614 9.14909 2.01893 8.72662 2.37527 8.37086C2.73162 8.01509 3.15455 7.733 3.61991 7.54068C4.08528 7.34837 4.58396 7.24959 5.0875 7.25H34.9219ZM34.9219 6H5.0875C4.42022 5.99918 3.75931 6.1298 3.14251 6.3844C2.52571 6.639 1.9651 7.01259 1.49268 7.48385C1.02026 7.9551 0.645293 8.5148 0.389178 9.13097C0.133063 9.74714 0.000820257 10.4077 0 11.075V40.9188C0 42.2664 0.535344 43.5588 1.48826 44.5117C2.44118 45.4647 3.73362 46 5.08125 46H34.9219C36.2685 45.9975 37.5591 45.4613 38.511 44.5088C39.4629 43.5563 39.9983 42.2653 40 40.9188V11.0813C39.9983 9.73467 39.4629 8.44367 38.511 7.4912C37.5591 6.53872 36.2685 6.00248 34.9219 6Z" fill="#666666"/>
<path d="M32.4998 13.5007V38.5007H7.49976V24.0195L18.0216 13.5007H32.4998ZM33.7498 12.2507H17.4998L6.24976 23.5007V39.7507H33.7498V12.2507Z" fill="#E60000"/>
<path d="M8.15112 6.00024V1.57837" stroke="#666666" stroke-width="1.33334" stroke-linecap="round" stroke-linejoin="round"/>
<path d="M15.6104 6.00024V1.57837" stroke="#666666" stroke-width="1.33334" stroke-linecap="round" stroke-linejoin="round"/>
<path d="M24.3777 6.00024V1.57837" stroke="#666666" stroke-width="1.33334" stroke-linecap="round" stroke-linejoin="round"/>
<path d="M31.8718 6.00024V1.57837" stroke="#666666" stroke-width="1.33334" stroke-linecap="round" stroke-linejoin="round"/>
<path d="M8.15112 50.4216V45.9998" stroke="#666666" stroke-width="1.33334" stroke-linecap="round" stroke-linejoin="round"/>
<path d="M15.6104 50.4216V45.9998" stroke="#666666" stroke-width="1.33334" stroke-linecap="round" stroke-linejoin="round"/>
<path d="M24.3777 50.4216V45.9998" stroke="#666666" stroke-width="1.33334" stroke-linecap="round" stroke-linejoin="round"/>
<path d="M31.8718 50.4216V45.9998" stroke="#666666" stroke-width="1.33334" stroke-linecap="round" stroke-linejoin="round"/>
</svg>
