<svg width="21" height="20" viewBox="0 0 21 20" fill="none" xmlns="http://www.w3.org/2000/svg">
<path d="M10.5003 -0.0012207C8.52244 -0.0012207 6.58904 0.585269 4.94455 1.68408C3.30006 2.7829 2.01833 4.34469 1.26145 6.17195C0.504577 7.99921 0.306544 10.0099 0.692396 11.9497C1.07825 13.8895 2.03066 15.6713 3.42918 17.0699C4.82771 18.4684 6.60954 19.4208 8.54935 19.8066C10.4892 20.1925 12.4998 19.9945 14.3271 19.2376C16.1544 18.4807 17.7161 17.199 18.8149 15.5545C19.9138 13.91 20.5003 11.9766 20.5003 9.99878C20.4973 7.34753 19.4428 4.80572 17.568 2.931C15.6933 1.05628 13.1515 0.00175693 10.5003 -0.0012207ZM16.4928 6.55003L8.63775 14.405C8.59128 14.4515 8.53612 14.4883 8.47543 14.5134C8.41473 14.5384 8.34968 14.5513 8.284 14.5513C8.21832 14.5513 8.15327 14.5384 8.09258 14.5134C8.03188 14.4883 7.97672 14.4515 7.93025 14.405L4.44025 10.9125C4.39006 10.8671 4.34963 10.8119 4.32141 10.7503C4.2932 10.6887 4.27779 10.622 4.27613 10.5543C4.27446 10.4866 4.28657 10.4193 4.31172 10.3564C4.33686 10.2935 4.37453 10.2364 4.42242 10.1885C4.47032 10.1406 4.52744 10.1029 4.59033 10.0777C4.65323 10.0526 4.72057 10.0405 4.78828 10.0422C4.85599 10.0438 4.92266 10.0592 4.98424 10.0874C5.04582 10.1157 5.10102 10.1561 5.1465 10.2063L8.284 13.3438L15.784 5.84378C15.8778 5.74996 16.0051 5.69725 16.1378 5.69725C16.2704 5.69725 16.3977 5.74996 16.4915 5.84378C16.5853 5.9376 16.638 6.06485 16.638 6.19753C16.638 6.33021 16.5853 6.45746 16.4915 6.55128L16.4928 6.55003Z" fill="white"/>
</svg>
