<svg width="32" height="32" viewBox="0 0 32 32" fill="none" xmlns="http://www.w3.org/2000/svg">
<path fill-rule="evenodd" clip-rule="evenodd" d="M7.52859 24.4713C7.65879 24.6015 7.82938 24.6666 8.00003 24.6666C8.17068 24.6666 8.34126 24.6015 8.47146 24.4713L16 16.9427L23.5287 24.4713C23.6587 24.6015 23.8295 24.6666 24 24.6666C24.1706 24.6666 24.3413 24.6015 24.4714 24.4713C24.7318 24.2111 24.7318 23.7889 24.4714 23.5286L16.9428 16L24.4714 8.4714C24.7318 8.21098 24.7318 7.78895 24.4714 7.52853C24.2113 7.26828 23.7888 7.26828 23.5287 7.52853L16 15.0572L8.47146 7.52853C8.21104 7.26828 7.78901 7.26828 7.52859 7.52853C7.26826 7.78895 7.26826 8.21098 7.52859 8.4714L15.0572 16L7.52859 23.5286C7.26826 23.7889 7.26826 24.2111 7.52859 24.4713Z" fill="#0D0D0D"/>
</svg>
