<svg width="24" height="24" viewBox="0 0 24 24" fill="none" xmlns="http://www.w3.org/2000/svg">
<path fill-rule="evenodd" clip-rule="evenodd" d="M6.72668 20.4937C8.25852 21.4482 10.066 22 12 22C13.934 22 15.7415 21.4482 17.2733 20.4937H19.9937C20.2698 20.4937 20.4937 20.2698 20.4937 19.9937V17.2733C21.4482 15.7415 22 13.934 22 12C22 10.066 21.4482 8.25852 20.4937 6.72668V4.00488C20.4937 3.72876 20.2698 3.50488 19.9937 3.50488H17.271C15.7396 2.55128 13.933 2 12 2C10.067 2 8.26036 2.55128 6.72902 3.50488H4.00488C3.72876 3.50488 3.50488 3.72876 3.50488 4.00488V6.72902C2.55128 8.26036 2 10.067 2 12C2 13.933 2.55128 15.7396 3.50488 17.271V19.9937C3.50488 20.2698 3.72876 20.4937 4.00488 20.4937H6.72668ZM12.5 19.4937H16.9797C17.3379 19.2548 17.6781 18.991 17.9978 18.7047L12.5 13.207V19.4937ZM12.0369 20.4937H14.9781C14.0456 20.8216 13.0432 21 12 21C10.9568 21 9.95441 20.8216 9.02186 20.4937H11.9631C11.9753 20.4945 11.9876 20.495 12 20.495C12.0124 20.495 12.0247 20.4945 12.0369 20.4937ZM11.5 19.4937H7.02035C6.66211 19.2548 6.32189 18.991 6.00219 18.7047L11.5 13.2069V19.4937ZM11.5 10.7929L6.00235 5.29515C6.32265 5.00833 6.66356 4.74407 7.02254 4.50488H11.5V10.7929ZM12.5 10.7927L17.9976 5.29508C17.6773 5.00828 17.3364 4.74405 16.9775 4.50488H12.5V10.7927ZM12.0701 3.50488H14.974C14.0426 3.17789 13.0417 3 12 3C10.9583 3 9.95739 3.17789 9.02602 3.50488H11.9299C11.9528 3.50166 11.9762 3.5 12 3.5C12.0238 3.5 12.0472 3.50166 12.0701 3.50488ZM4.50488 11.5H10.793L5.2952 6.0023C5.00836 6.32262 4.74408 6.66354 4.50488 7.02254V11.5ZM5.2951 17.9976L10.7927 12.5H4.50488V16.9775C4.74405 17.3364 5.0083 17.6773 5.2951 17.9976ZM19.4937 12.5H13.2071L18.7048 17.9977C18.9911 17.678 19.2548 17.3379 19.4937 16.9797V12.5ZM13.2069 11.5H19.4937V7.02035C19.2548 6.6621 18.991 6.32186 18.7047 6.00215L13.2069 11.5ZM20.495 12C20.495 12.0124 20.4945 12.0247 20.4937 12.0369V14.9781C20.8216 14.0456 21 13.0432 21 12C21 10.9568 20.8216 9.95441 20.4937 9.02186V11.9631C20.4945 11.9753 20.495 11.9876 20.495 12ZM3.50488 9.02602V11.9299C3.50166 11.9528 3.5 11.9762 3.5 12C3.5 12.0238 3.50166 12.0472 3.50488 12.0701V14.974C3.17789 14.0426 3 13.0417 3 12C3 10.9583 3.17789 9.95739 3.50488 9.02602ZM19.0175 19.1177C19.0362 19.1036 19.0541 19.0881 19.0711 19.0711C19.0881 19.0541 19.1036 19.0362 19.1177 19.0175C19.2466 18.8867 19.372 18.7524 19.4937 18.6148V19.4937H18.6148C18.7524 19.372 18.8867 19.2466 19.0175 19.1177ZM4.50488 18.6131C4.62673 18.7511 4.75231 18.8856 4.88147 19.0166C4.89567 19.0356 4.91141 19.0538 4.92866 19.0711C4.94591 19.0883 4.96411 19.1041 4.98309 19.1183C5.11367 19.247 5.24777 19.3722 5.38522 19.4937H4.50488V18.6131ZM4.50488 5.38687C4.78038 5.075 5.075 4.78038 5.38687 4.50488H4.50488V5.38687ZM18.6131 4.50488C18.9245 4.77989 19.2186 5.07395 19.4937 5.38522V4.50488H18.6131Z" fill="white"/>
</svg>
