<svg width="16" height="16" viewBox="0 0 16 16" fill="none" xmlns="http://www.w3.org/2000/svg">
<path fill-rule="evenodd" clip-rule="evenodd" d="M4.48445 13.6624C5.50567 14.2987 6.71068 14.6666 7.99999 14.6666C9.28931 14.6666 10.4943 14.2987 11.5155 13.6624H13.3291C13.5132 13.6624 13.6624 13.5132 13.6624 13.3291V11.5155C14.2988 10.4943 14.6667 9.2893 14.6667 7.99998C14.6667 6.71066 14.2988 5.50566 13.6624 4.48443V2.6699C13.6624 2.48582 13.5132 2.33657 13.3291 2.33657H11.514C10.4931 1.70084 9.28865 1.33331 7.99999 1.33331C6.71134 1.33331 5.5069 1.70084 4.48601 2.33657H2.66992C2.48583 2.33657 2.33658 2.48582 2.33658 2.6699V4.486C1.70085 5.50689 1.33333 6.71132 1.33333 7.99998C1.33333 9.28864 1.70085 10.4931 2.33658 11.514V13.3291C2.33658 13.5132 2.48583 13.6624 2.66992 13.6624H4.48445ZM8.33333 12.9958H11.3198C11.5586 12.8365 11.7854 12.6607 11.9985 12.4698L8.33333 8.80467V12.9958ZM8.02464 13.6624H9.98543C9.36373 13.881 8.69549 14 7.99999 14C7.3045 14 6.63626 13.881 6.01456 13.6624H7.97535C7.98349 13.663 7.99171 13.6633 7.99999 13.6633C8.00828 13.6633 8.0165 13.663 8.02464 13.6624ZM7.66666 12.9958H4.68022C4.4414 12.8365 4.21459 12.6606 4.00145 12.4698L7.66666 8.80455V12.9958ZM7.66666 7.19522L4.00156 3.53008C4.2151 3.33887 4.44237 3.16269 4.68169 3.00323H7.66666V7.19522ZM8.33333 7.19509L11.9984 3.53003C11.7849 3.33884 11.5576 3.16268 11.3183 3.00323H8.33333V7.19509ZM8.04676 2.33657H9.98265C9.36174 2.11857 8.69446 1.99998 7.99999 1.99998C7.30553 1.99998 6.63825 2.11857 6.01734 2.33657H7.95323C7.96851 2.33442 7.98412 2.33331 7.99999 2.33331C8.01587 2.33331 8.03148 2.33442 8.04676 2.33657ZM3.00325 7.66665H7.1953L3.53013 4.00151C3.3389 4.21506 3.16271 4.44234 3.00325 4.68167V7.66665ZM3.53006 11.9984L7.19511 8.33331H3.00325V11.3183C3.1627 11.5576 3.33886 11.7849 3.53006 11.9984ZM12.9958 8.33331H8.80475L12.4699 11.9985C12.6607 11.7853 12.8366 11.5585 12.9958 11.3198V8.33331ZM8.80456 7.66665H12.9958V4.68021C12.8365 4.44138 12.6606 4.21455 12.4698 4.00141L8.80456 7.66665ZM13.6633 7.99998C13.6633 8.00827 13.663 8.01649 13.6624 8.02462V9.98541C13.881 9.36371 14 8.69548 14 7.99998C14 7.30448 13.881 6.63625 13.6624 6.01455V7.97533C13.663 7.98347 13.6633 7.99169 13.6633 7.99998ZM2.33658 6.01732V7.95321C2.33444 7.96849 2.33333 7.98411 2.33333 7.99998C2.33333 8.01585 2.33444 8.03146 2.33658 8.04675V9.98264C2.11859 9.36172 1.99999 8.69444 1.99999 7.99998C1.99999 7.30552 2.11859 6.63824 2.33658 6.01732ZM12.6783 12.7451C12.6908 12.7357 12.7027 12.7254 12.7141 12.714C12.7254 12.7027 12.7357 12.6908 12.7451 12.6783C12.8311 12.5911 12.9147 12.5016 12.9958 12.4098V12.9958H12.4099C12.5016 12.9147 12.5911 12.8311 12.6783 12.7451ZM3.00325 12.4087C3.08448 12.5007 3.1682 12.5904 3.25431 12.6777C3.26378 12.6904 3.27427 12.7025 3.28577 12.714C3.29727 12.7255 3.3094 12.736 3.32205 12.7455C3.40911 12.8313 3.4985 12.9148 3.59014 12.9958H3.00325V12.4087ZM3.00325 3.59123C3.18692 3.38331 3.38333 3.1869 3.59124 3.00323H3.00325V3.59123ZM12.4087 3.00323C12.6163 3.18658 12.8124 3.38262 12.9958 3.59012V3.00323H12.4087Z" fill="#00697C"/>
</svg>
