<svg width="20" height="20" viewBox="0 0 20 20" fill="none" xmlns="http://www.w3.org/2000/svg">
<path fill-rule="evenodd" clip-rule="evenodd" d="M4.72668 18.4937C6.25852 19.4482 8.06602 20 10 20C11.934 20 13.7415 19.4482 15.2733 18.4937H17.9937C18.2698 18.4937 18.4937 18.2698 18.4937 17.9937V15.2733C19.4482 13.7415 20 11.934 20 10C20 8.06602 19.4482 6.25852 18.4937 4.72668V2.00488C18.4937 1.72876 18.2698 1.50488 17.9937 1.50488H15.271C13.7396 0.551283 11.933 0 10 0C8.06701 0 6.26036 0.551283 4.72902 1.50488H2.00488C1.72876 1.50488 1.50488 1.72876 1.50488 2.00488V4.72902C0.551283 6.26036 0 8.06701 0 10C0 11.933 0.551283 13.7396 1.50488 15.271V17.9937C1.50488 18.2698 1.72876 18.4937 2.00488 18.4937H4.72668ZM10.5 17.4937H14.9797C15.3379 17.2548 15.6781 16.991 15.9978 16.7047L10.5 11.207V17.4937ZM10.0369 18.4937H12.9781C12.0456 18.8216 11.0432 19 10 19C8.95676 19 7.95441 18.8216 7.02186 18.4937H9.96305C9.97525 18.4945 9.98757 18.495 10 18.495C10.0124 18.495 10.0247 18.4945 10.0369 18.4937ZM9.5 17.4937H5.02035C4.66211 17.2548 4.32189 16.991 4.00219 16.7047L9.5 11.2069V17.4937ZM9.5 8.79286L4.00235 3.29515C4.32265 3.00833 4.66356 2.74407 5.02254 2.50488H9.5V8.79286ZM10.5 8.79267L15.9976 3.29508C15.6773 3.00828 15.3364 2.74405 14.9775 2.50488H10.5V8.79267ZM10.0701 1.50488H12.974C12.0426 1.17789 11.0417 1 10 1C8.95831 1 7.95739 1.17789 7.02602 1.50488H9.92985C9.95277 1.50166 9.97619 1.5 10 1.5C10.0238 1.5 10.0472 1.50166 10.0701 1.50488ZM2.50488 9.5H8.79295L3.2952 4.0023C3.00836 4.32262 2.74408 4.66354 2.50488 5.02254V9.5ZM3.2951 15.9976L8.79268 10.5H2.50488V14.9775C2.74405 15.3364 3.0083 15.6773 3.2951 15.9976ZM17.4937 10.5H11.2071L16.7048 15.9977C16.9911 15.678 17.2548 15.3379 17.4937 14.9797V10.5ZM11.2069 9.5H17.4937V5.02035C17.2548 4.6621 16.991 4.32186 16.7047 4.00215L11.2069 9.5ZM18.495 10C18.495 10.0124 18.4945 10.0247 18.4937 10.0369V12.9781C18.8216 12.0456 19 11.0432 19 10C19 8.95676 18.8216 7.95441 18.4937 7.02186V9.96305C18.4945 9.97525 18.495 9.98757 18.495 10ZM1.50488 7.02602V9.92985C1.50166 9.95277 1.5 9.97619 1.5 10C1.5 10.0238 1.50166 10.0472 1.50488 10.0701V12.974C1.17789 12.0426 1 11.0417 1 10C1 8.95831 1.17789 7.95739 1.50488 7.02602ZM17.0175 17.1177C17.0362 17.1036 17.0541 17.0881 17.0711 17.0711C17.0881 17.0541 17.1036 17.0362 17.1177 17.0175C17.2466 16.8867 17.372 16.7524 17.4937 16.6148V17.4937H16.6148C16.7524 17.372 16.8867 17.2466 17.0175 17.1177ZM2.50488 16.6131C2.62673 16.7511 2.75231 16.8856 2.88147 17.0166C2.89567 17.0356 2.91141 17.0538 2.92866 17.0711C2.94591 17.0883 2.96411 17.1041 2.98309 17.1183C3.11367 17.247 3.24777 17.3722 3.38522 17.4937H2.50488V16.6131ZM2.50488 3.38687C2.78038 3.075 3.075 2.78038 3.38687 2.50488H2.50488V3.38687ZM16.6131 2.50488C16.9245 2.77989 17.2186 3.07395 17.4937 3.38522V2.50488H16.6131Z" fill="white"/>
</svg>
