<svg width="30" height="24" viewBox="0 0 30 24" fill="none" xmlns="http://www.w3.org/2000/svg">
<path d="M1.386 18V5.994H2.754V16.758H8.046V18H1.386ZM9.44972 18V9.414H10.7637V18H9.44972ZM10.1517 7.902C9.91172 7.902 9.70172 7.83 9.52172 7.686C9.35372 7.53 9.26972 7.308 9.26972 7.02C9.26972 6.744 9.35372 6.528 9.52172 6.372C9.70172 6.216 9.91172 6.138 10.1517 6.138C10.3917 6.138 10.5957 6.216 10.7637 6.372C10.9317 6.528 11.0157 6.744 11.0157 7.02C11.0157 7.308 10.9317 7.53 10.7637 7.686C10.5957 7.83 10.3917 7.902 10.1517 7.902ZM18.7571 18V12.618C18.7571 11.898 18.6011 11.334 18.2891 10.926C17.9891 10.518 17.4911 10.314 16.7951 10.314C16.3631 10.314 15.9371 10.41 15.5171 10.602C15.1091 10.794 14.7551 11.016 14.4551 11.268V18H13.1411V9.414H14.3471L14.4191 10.098C14.7551 9.846 15.1451 9.636 15.5891 9.468C16.0331 9.288 16.5071 9.198 17.0111 9.198C18.1391 9.198 18.9311 9.486 19.3871 10.062C19.8431 10.626 20.0711 11.49 20.0711 12.654V18H18.7571ZM27.6612 18L26.6352 15.408C26.4792 15 26.3232 14.676 26.1672 14.436C26.0232 14.184 25.8492 14.004 25.6452 13.896C25.4412 13.776 25.1592 13.716 24.7992 13.716H23.7012V18H22.3872V5.994H23.7012V12.6H24.5832C24.9312 12.6 25.2312 12.516 25.4832 12.348C25.7472 12.168 26.0052 11.796 26.2572 11.232L27.0492 9.414H28.4712L27.5712 11.394C27.3792 11.814 27.1812 12.162 26.9772 12.438C26.7852 12.714 26.5572 12.9 26.2932 12.996C26.6292 13.092 26.9052 13.248 27.1212 13.464C27.3372 13.68 27.5472 14.04 27.7512 14.544L29.1192 18H27.6612Z" fill="#0D0D0D"/>
</svg>
